<svg width="192" height="192" viewBox="0 0 192 192" fill="none" xmlns="http://www.w3.org/2000/svg">
  <rect width="192" height="192" rx="32" fill="#4CAF50"/>
  
  <!-- Butterfly Design -->
  <g transform="translate(96, 96)">
    <!-- Upper left wing -->
    <ellipse cx="-30" cy="-22" rx="22" ry="30" fill="#FFE082" transform="rotate(-20)"/>
    <ellipse cx="-26" cy="-19" rx="15" ry="22" fill="#FFF176" transform="rotate(-20)"/>
    <circle cx="-28" cy="-15" r="3" fill="#FF5722"/>
    
    <!-- Upper right wing -->
    <ellipse cx="30" cy="-22" rx="22" ry="30" fill="#FFE082" transform="rotate(20)"/>
    <ellipse cx="26" cy="-19" rx="15" ry="22" fill="#FFF176" transform="rotate(20)"/>
    <circle cx="28" cy="-15" r="3" fill="#FF5722"/>
    
    <!-- Lower left wing -->
    <ellipse cx="-22" cy="15" rx="17" ry="22" fill="#FFCC02" transform="rotate(-30)"/>
    <ellipse cx="-20" cy="13" rx="11" ry="17" fill="#FFF176" transform="rotate(-30)"/>
    <circle cx="-19" cy="11" r="2" fill="#E65100"/>
    
    <!-- Lower right wing -->
    <ellipse cx="22" cy="15" rx="17" ry="22" fill="#FFCC02" transform="rotate(30)"/>
    <ellipse cx="20" cy="13" rx="11" ry="17" fill="#FFF176" transform="rotate(30)"/>
    <circle cx="19" cy="11" r="2" fill="#E65100"/>
    
    <!-- Body -->
    <ellipse cx="0" cy="0" rx="2.5" ry="30" fill="#5D4037"/>
    <circle cx="0" cy="-25" r="4" fill="#3E2723"/>
    
    <!-- Antennae -->
    <path d="M -2 -27 Q -5 -32 -3 -34" stroke="#3E2723" stroke-width="1.5" fill="none" stroke-linecap="round"/>
    <path d="M 2 -27 Q 5 -32 3 -34" stroke="#3E2723" stroke-width="1.5" fill="none" stroke-linecap="round"/>
    <circle cx="-3" cy="-34" r="1" fill="#3E2723"/>
    <circle cx="3" cy="-34" r="1" fill="#3E2723"/>
  </g>
</svg>
