<svg width="192" height="192" viewBox="0 0 192 192" fill="none" xmlns="http://www.w3.org/2000/svg">
  <!-- Background -->
  <rect width="192" height="192" rx="30" fill="#4CAF50"/>
  
  <!-- Butterfly wings with more detail -->
  <g transform="translate(96, 96)">
    <!-- Upper left wing -->
    <ellipse cx="-32" cy="-25" rx="25" ry="32" fill="#FFB74D" transform="rotate(-25)"/>
    <ellipse cx="-28" cy="-22" rx="20" ry="26" fill="#FFE082" transform="rotate(-25)"/>
    <ellipse cx="-24" cy="-18" rx="15" ry="20" fill="#FFF3E0" transform="rotate(-25)"/>
    <!-- Wing spots -->
    <circle cx="-28" cy="-16" r="4" fill="#FF5722"/>
    <circle cx="-25" cy="-20" r="2" fill="#D84315"/>
    <circle cx="-31" cy="-13" r="2.5" fill="#BF360C"/>
    
    <!-- Upper right wing -->
    <ellipse cx="32" cy="-25" rx="25" ry="32" fill="#FFB74D" transform="rotate(25)"/>
    <ellipse cx="28" cy="-22" rx="20" ry="26" fill="#FFE082" transform="rotate(25)"/>
    <ellipse cx="24" cy="-18" rx="15" ry="20" fill="#FFF3E0" transform="rotate(25)"/>
    <!-- Wing spots -->
    <circle cx="28" cy="-16" r="4" fill="#FF5722"/>
    <circle cx="25" cy="-20" r="2" fill="#D84315"/>
    <circle cx="31" cy="-13" r="2.5" fill="#BF360C"/>
    
    <!-- Lower left wing -->
    <ellipse cx="-24" cy="18" rx="20" ry="25" fill="#FF9800" transform="rotate(-35)"/>
    <ellipse cx="-21" cy="16" rx="15" ry="20" fill="#FFCC02" transform="rotate(-35)"/>
    <ellipse cx="-18" cy="14" rx="10" ry="15" fill="#FFF8E1" transform="rotate(-35)"/>
    <!-- Wing spots -->
    <circle cx="-20" cy="13" r="3" fill="#E65100"/>
    <circle cx="-17" cy="16" r="1.5" fill="#BF360C"/>
    <circle cx="-23" cy="11" r="2" fill="#FF3D00"/>
    
    <!-- Lower right wing -->
    <ellipse cx="24" cy="18" rx="20" ry="25" fill="#FF9800" transform="rotate(35)"/>
    <ellipse cx="21" cy="16" rx="15" ry="20" fill="#FFCC02" transform="rotate(35)"/>
    <ellipse cx="18" cy="14" rx="10" ry="15" fill="#FFF8E1" transform="rotate(35)"/>
    <!-- Wing spots -->
    <circle cx="20" cy="13" r="3" fill="#E65100"/>
    <circle cx="17" cy="16" r="1.5" fill="#BF360C"/>
    <circle cx="23" cy="11" r="2" fill="#FF3D00"/>
    
    <!-- Wing edges and details -->
    <path d="M -35 -30 Q -40 -35 -38 -40 Q -35 -42 -32 -38" fill="#FFAB40" transform="rotate(-25)"/>
    <path d="M 35 -30 Q 40 -35 38 -40 Q 35 -42 32 -38" fill="#FFAB40" transform="rotate(25)"/>
    <path d="M -28 25 Q -32 30 -30 35 Q -27 37 -24 33" fill="#FF8F00" transform="rotate(-35)"/>
    <path d="M 28 25 Q 32 30 30 35 Q 27 37 24 33" fill="#FF8F00" transform="rotate(35)"/>
    
    <!-- Body with segments -->
    <ellipse cx="0" cy="0" rx="4" ry="35" fill="#5D4037"/>
    <ellipse cx="0" cy="-5" rx="3.5" ry="8" fill="#6D4C41"/>
    <ellipse cx="0" cy="5" rx="3.5" ry="8" fill="#6D4C41"/>
    <ellipse cx="0" cy="15" rx="3.5" ry="8" fill="#6D4C41"/>
    
    <!-- Head -->
    <circle cx="0" cy="-30" r="5.5" fill="#3E2723"/>
    <circle cx="-1.5" cy="-30" r="1.5" fill="#1A1A1A"/>
    <circle cx="1.5" cy="-30" r="1.5" fill="#1A1A1A"/>
    
    <!-- Antennae with clubs -->
    <path d="M -2.5 -33 Q -8 -40 -6 -42" stroke="#3E2723" stroke-width="2" fill="none" stroke-linecap="round"/>
    <path d="M 2.5 -33 Q 8 -40 6 -42" stroke="#3E2723" stroke-width="2" fill="none" stroke-linecap="round"/>
    <ellipse cx="-6" cy="-42" rx="2" ry="3" fill="#3E2723"/>
    <ellipse cx="6" cy="-42" rx="2" ry="3" fill="#3E2723"/>
    
    <!-- Wing pattern details -->
    <path d="M -20 -15 Q -15 -12 -18 -8" stroke="#D84315" stroke-width="1.5" fill="none"/>
    <path d="M 20 -15 Q 15 -12 18 -8" stroke="#D84315" stroke-width="1.5" fill="none"/>
    <path d="M -15 8 Q -12 12 -8 10" stroke="#E65100" stroke-width="1.5" fill="none"/>
    <path d="M 15 8 Q 12 12 8 10" stroke="#E65100" stroke-width="1.5" fill="none"/>
  </g>
</svg>
